<mxfile host="65bd71144e">
    <diagram id="E1l7d0BXzQ2T14fjONPI" name="Page-1">
        <mxGraphModel dx="592" dy="571" grid="1" gridSize="10" guides="1" tooltips="1" connect="1" arrows="1" fold="1" page="1" pageScale="1" pageWidth="850" pageHeight="1100" math="0" shadow="0">
            <root>
                <mxCell id="0"/>
                <mxCell id="1" parent="0"/>
                <mxCell id="2" value="Actor" style="shape=umlActor;verticalLabelPosition=bottom;verticalAlign=top;html=1;outlineConnect=0;" vertex="1" parent="1">
                    <mxGeometry x="80" y="240" width="30" height="60" as="geometry"/>
                </mxCell>
                <mxCell id="3" value="Tipo Objeto: Persona" style="text;html=1;align=center;verticalAlign=middle;whiteSpace=wrap;rounded=0;" vertex="1" parent="1">
                    <mxGeometry x="150" y="80" width="130" height="50" as="geometry"/>
                </mxCell>
                <mxCell id="4" value="Atributos Objeto:&lt;div&gt;nombre: string&lt;/div&gt;&lt;div&gt;edad: int&lt;/div&gt;&lt;div&gt;estatura: float&lt;/div&gt;" style="text;html=1;align=center;verticalAlign=middle;whiteSpace=wrap;rounded=0;" vertex="1" parent="1">
                    <mxGeometry x="150" y="245" width="130" height="75" as="geometry"/>
                </mxCell>
                <mxCell id="5" value="Atributos Objeto:&lt;div&gt;nombre: string&lt;/div&gt;&lt;div&gt;edad: int&lt;/div&gt;&lt;div&gt;estatura: float&lt;/div&gt;" style="text;html=1;align=center;verticalAlign=middle;whiteSpace=wrap;rounded=0;" vertex="1" parent="1">
                    <mxGeometry x="150" y="420" width="130" height="75" as="geometry"/>
                </mxCell>
            </root>
        </mxGraphModel>
    </diagram>
</mxfile>